<svg fill="none" height="269" viewBox="0 0 459 269" width="459" xmlns="http://www.w3.org/2000/svg"><path d="m406.245.259554c-.73.127049-1.588.381148-1.905.539959-.413.222337-.763.190574-1.207-.127049-.731-.539959-2.954-.571721-4.193-.095287-.477.190574-1.938.41291-3.208.476433-1.271.06353-2.732.34939-3.208.57172-.477.2541-2.065.69877-3.557.98463-4.13.82582-5.845 1.39755-6.575 2.15984-.763.82582-2.287 3.62092-2.287 4.19264 0 .22234-.191.47644-.445.57172-.54.22234-6.575 6.79714-8.893 9.68754-2.922 3.6844-7.433 10.0686-14.007 19.9149-6.512 9.6875-13.404 19.8197-19.121 28.1097-1.747 2.541-5.273 7.6865-7.877 11.4344-2.573 3.748-5.813 8.3853-7.147 10.3228-2.509 3.5891-3.557 5.3995-4.288 7.4959-.857 2.4139.635 7.8136 3.526 12.8636 1.016 1.715 2.604 4.637 3.557 6.48 1.906 3.748 2.922 4.955 5.463 6.574.953.636 2.605 1.906 3.621 2.859 1.811 1.683 1.938 1.747 3.176 1.525.731-.096 1.906-.54 2.637-.985 2.414-1.398 7.909-8.099 18.422-22.424 2.922-4.0023 7.909-10.5453 11.053-14.4838 3.145-3.9703 7.21-9.2111 9.052-11.625l3.335-4.415.096 7.5912c.254 19.6926-2.255 38.8766-7.75 58.8876-11.403 41.799-33.859 69.273-67.305 82.359-7.94 3.113-15.118 4.86-23.027 5.686-5.972.603-19.185.508-24.616-.159-2.446-.318-4.701-.635-4.987-.731-.476-.158-.317-.508.985-2.477 2.509-3.716 4.351-6.956 7.369-12.959 4.542-9.052 7.114-15.849 9.179-24.108 2.065-8.258 2.319-10.164 2.35-17.596 0-7.559-.412-10.609-2.159-15.881-2.859-8.544-7.433-15.849-14.262-22.901-6.511-6.765-11.529-10.259-22.297-15.531-11.117-5.464-15.182-6.607-23.822-6.639-4.954-.032-5.939.096-14.928 1.588-1.556.254-4.002.794-5.399 1.239-1.398.413-3.971 1.112-5.749 1.556-10.863 2.764-18.677 6.956-25.22 13.499-3.906 3.907-6.066 6.798-8.321 11.149-6.512 12.451-7.401 24.044-3.081 39.703 1.905 6.956 4.351 12.514 10.195 23.186 5.972 10.895 9.211 15.786 14.548 22.075 2.509 2.954 10.386 10.736 13.244 13.086l1.97 1.62-3.24 1.144c-6.321 2.223-12.737 3.747-20.074 4.764-27.855 3.843-62.127-2.7-101.3216-19.343-14.5154-6.162-39.3535-20.773-52.5349-30.937-2.89033-2.255-5.62189-4.256-6.06656-4.478-.44467-.223-1.23873-.826-1.81045-1.334-.88935-.858-1.14345-.921-2.25513-.731-1.492824.254-2.096308.826-1.8104471 1.715.0952871.35 1.3975371 2.446 2.8903671 4.701 5.39959 8.068 11.56152 14.643 20.16902 21.598 15.8494 12.769 29.9519 21.916 46.5953 30.238 21.5031 10.768 40.8464 17.66 60.4124 21.63 20.105 4.034 41.1 3.558 62.889-1.461 6.162-1.429 15.849-4.605 20.645-6.797 2.001-.921 3.875-1.652 4.129-1.652.255 0 1.398.445 2.541.953 8.83 4.098 21.885 8.004 32.43 9.751 12.482 2.065 27.887 1.874 42.53-.476 38.495-6.257 64.89-22.234 83.979-50.82 4.51-6.733 5.844-9.116 11.498-20.486 5.241-10.514 7.178-15.088 11.18-26.681 6.639-19.121 11.625-41.799 13.245-60.189.445-5.146 1.112-18.1366 1.112-22.234l.032-1.7469 2.604 5.1137c4.828 9.497 12.546 23.0592 14.865 26.1722 2.001 2.7 5.241 5.876 8.068 7.941 1.048.794 2.541 1.969 3.335 2.636 3.081 2.668 6.289 3.494 8.035 2.128.731-.572 1.938-2.763 3.018-5.495.222-.476.699-2.033 1.08-3.494.667-2.446.73-3.208.73-11.657-.031-12.9586-.476-14.7373-6.924-27.9504-8.671-17.7869-18.2-40.3699-25.632-60.666-3.081-8.4806-5.05-12.64145-6.543-13.9437-.826-.73053-1.493-.98463-3.017-1.17521-1.62-.19057-2.097-.38114-2.796-1.14344-1.81-2.032786-4.383-2.953893-6.924-2.445696zm-190.351 143.057446c8.004 1.683 16.548 5.971 21.693 10.926 4.193 4.002 6.353 6.829 7.083 9.275.922 3.049.826 10.958-.158 15.532-2.224 10.386-7.623 20.899-15.564 30.174-2.255 2.668-7.083 7.305-7.559 7.305-.445 0-4.447-2.35-7.687-4.51-19.534-13.118-32.524-29.857-36.431-46.945-.413-1.842-.763-4.319-.763-5.526v-2.16l2.446-2.51c6.289-6.479 14.801-10.449 25.982-12.164 1.81-.286 8.576.095 10.958.603z" fill="#000"/></svg>