<?xml version="1.0" encoding="UTF-8" standalone="no"?>
<!-- Created with Inkscape (http://www.inkscape.org/) -->

<svg
   xmlns:dc="http://purl.org/dc/elements/1.1/"
   xmlns:cc="http://creativecommons.org/ns#"
   xmlns:rdf="http://www.w3.org/1999/02/22-rdf-syntax-ns#"
   xmlns:svg="http://www.w3.org/2000/svg"
   xmlns="http://www.w3.org/2000/svg"
   xmlns:sodipodi="http://sodipodi.sourceforge.net/DTD/sodipodi-0.dtd"
   xmlns:inkscape="http://www.inkscape.org/namespaces/inkscape"
   width="141.11111mm"
   height="141.11111mm"
   viewBox="0 0 500.00001 500.00001"
   id="svg3349"
   version="1.1"
   inkscape:version="0.91 r13725"
   sodipodi:docname="drawing-1.svg">
  <defs
     id="defs3351" />
  <sodipodi:namedview
     id="base"
     pagecolor="#ffffff"
     bordercolor="#666666"
     borderopacity="1.0"
     inkscape:pageopacity="0.0"
     inkscape:pageshadow="2"
     inkscape:zoom="0.7"
     inkscape:cx="260.56967"
     inkscape:cy="321.64464"
     inkscape:document-units="px"
     inkscape:current-layer="layer1"
     showgrid="false"
     fit-margin-top="0"
     fit-margin-left="0"
     fit-margin-right="0"
     fit-margin-bottom="0"
     inkscape:window-width="1366"
     inkscape:window-height="715"
     inkscape:window-x="-8"
     inkscape:window-y="-8"
     inkscape:window-maximized="1" />
  <metadata
     id="metadata3354">
    <rdf:RDF>
      <cc:Work
         rdf:about="">
        <dc:format>image/svg+xml</dc:format>
        <dc:type
           rdf:resource="http://purl.org/dc/dcmitype/StillImage" />
        <dc:title></dc:title>
      </cc:Work>
    </rdf:RDF>
  </metadata>
  <g
     inkscape:label="Camada 1"
     inkscape:groupmode="layer"
     id="layer1"
     transform="translate(-72.496806,-54.157636)">
    <path
       style="fill:#ffffff;fill-rule:evenodd;stroke:none"
       inkscape:connector-curvature="0"
       id="path1"
       d="m 303.79946,54.808533 c -16.0306,1.271492 -34.74303,4.434719 -46.41871,7.84441 -1.00385,0.293798 -3.5551,1.034822 -5.67053,1.648533 C 133.32766,98.635052 57.15254,217.51883 75.11412,339.90861 c 14.18939,96.69059 83.87784,177.1619 176.5961,203.92364 2.11543,0.61045 4.66668,1.34985 5.67053,1.64201 7.01226,2.04842 18.89361,4.46899 28.67095,5.84168 3.18294,0.44723 6.1896,0.90589 6.68254,1.0185 2.26887,0.52395 23.6517,1.82646 29.93108,1.82319 15.02348,-0.005 38.60663,-2.51198 51.97171,-5.52504 6.52259,-1.47062 11.4537,-2.65234 13.16269,-3.15506 1.00385,-0.2938 3.5551,-1.03809 5.67053,-1.6518 50.40146,-14.61646 96.67652,-46.59802 128.62182,-88.89353 25.07342,-33.19755 41.43047,-71.75856 47.56131,-112.13131 0.45214,-2.9739 0.90754,-5.79925 1.01201,-6.27749 2.44189,-11.13985 2.44189,-53.77975 0,-64.91959 -0.10447,-0.47661 -0.55987,-3.30197 -1.01201,-6.27749 -1.70247,-11.21167 -4.3892,-23.24107 -7.2669,-32.54467 -4.21944,-13.63877 -6.29896,-19.18176 -12.38083,-33.00986 C 526.18583,145.61337 476.59887,97.500665 420.20206,73.825433 c -1.66983,-0.701852 -3.40168,-1.441244 -3.84728,-1.643638 -3.22375,-1.467358 -16.43867,-6.017965 -22.88453,-7.883583 -2.11543,-0.61208 -4.66668,-1.353104 -5.67053,-1.648534 -1.70899,-0.50109 -6.6401,-1.68281 -13.16269,-3.153433 -3.68568,-0.830796 -9.11137,-1.792169 -14.17633,-2.510342 -2.22805,-0.316649 -5.14331,-0.760611 -6.48014,-0.98912 -10.84649,-1.847665 -34.75282,-2.414042 -50.1811,-1.18825 m 38.37483,9.687177 c 5.37999,0.445594 10.87424,0.998913 12.21107,1.230687 1.33684,0.231774 4.16231,0.677368 6.27774,0.990753 8.28708,1.224158 19.13356,3.537003 19.3278,4.121335 0.0816,0.244831 -0.78349,3.886296 -1.92119,8.089241 -1.1377,4.202946 -2.43209,9.00981 -2.87444,10.681195 -0.44234,1.669753 -1.15892,4.358005 -1.59311,5.973895 -0.43418,1.614258 -1.16381,4.348213 -1.62085,6.075094 -0.45867,1.72525 -1.18829,4.4592 -1.62085,6.07509 -0.43255,1.61426 -1.13443,4.25681 -1.55882,5.8727 -3.99419,15.17141 -8.32461,30.96306 -8.58905,31.30745 -0.22036,0.29054 -1.77102,0.12895 -4.89846,-0.50761 -21.54769,-4.38739 -56.66941,-3.93363 -69.23631,0.89282 -0.96142,0.37051 -1.30582,-0.49293 -3.39351,-8.50546 -0.54844,-2.10718 -1.71552,-6.48151 -3.02624,-11.34061 -0.4195,-1.55876 -1.14912,-4.29271 -1.62085,-6.07509 -0.47173,-1.78238 -1.22257,-4.60773 -1.66819,-6.27749 -0.44561,-1.67138 -1.14586,-4.31393 -1.55883,-5.87269 -0.41133,-1.5604 -2.77813,-10.382504 -5.25919,-19.604501 -2.48269,-9.223629 -4.36798,-16.89829 -4.19006,-17.05335 0.49132,-0.434167 11.75076,-2.684988 19.15641,-3.832433 2.11543,-0.326442 5.12372,-0.796519 6.68254,-1.044615 12.51794,-1.983138 35.0548,-2.511974 50.97439,-1.196411 m -85.83331,10.633859 c 0.64639,2.278569 5.87295,21.664348 7.15265,26.528341 0.79328,3.01633 1.79877,6.79326 3.17805,11.94779 1.3809,5.15452 2.38801,8.9282 3.21558,12.04899 0.44235,1.67138 1.9669,7.34658 3.38697,12.6121 l 2.58064,9.57455 -4.47897,1.5049 c -21.33387,7.17031 -40.88039,18.46521 -57.33375,33.13227 -1.67145,1.48858 -3.17968,2.70784 -3.35269,2.7111 -0.4244,0.003 -54.56704,-53.92827 -54.56704,-54.35428 0,-1.10827 14.4228,-13.43474 23.89654,-20.42387 13.68991,-10.09849 31.97468,-20.642582 46.57867,-26.86131 1.67145,-0.711644 3.58448,-1.532647 4.25371,-1.824813 0.66761,-0.293798 1.66982,-0.665942 2.22643,-0.829163 0.5566,-0.163221 1.19482,-0.430904 1.41845,-0.595757 0.22199,-0.163222 1.31561,-0.618608 2.43046,-1.010339 4.76625,-1.677914 18.25049,-6.23505 18.51819,-6.259533 0.16159,-0.01632 0.56477,0.928729 0.89611,2.099024 m 141.38299,0.502722 c 24.95098,8.193703 48.52271,20.477729 69.43707,36.187769 8.07325,6.06367 21.89701,17.98534 21.89701,18.88469 0,0.49783 -54.11979,54.49792 -54.59479,54.47181 -0.15832,-0.008 -1.19809,-0.84059 -2.31131,-1.8493 -15.63395,-14.15291 -35.22617,-25.90157 -54.27485,-32.54467 -7.96877,-2.77966 -8.3034,-2.9086 -8.30176,-3.18934 0,-0.14853 2.56431,-9.83898 5.69664,-21.53377 3.13234,-11.6948 6.05902,-22.63062 6.50137,-24.30037 0.44234,-1.67139 1.14912,-4.31394 1.57025,-5.872702 0.42112,-1.560395 1.15076,-4.292717 1.62085,-6.075093 0.47173,-1.782376 1.20135,-4.51633 1.62085,-6.075093 0.4195,-1.560394 1.12301,-4.202945 1.56372,-5.872698 1.41029,-5.342229 1.03487,-4.886841 3.43594,-4.178462 1.14913,0.3395 3.91094,1.215998 6.13901,1.947229 m -89.51247,3.419483 c -5.41753,1.318828 -11.12071,9.82918 -8.2985,12.383592 1.85101,1.674649 4.10845,1.078892 5.38978,-1.421656 4.23576,-8.263889 10.01403,-5.809042 11.85687,5.035373 1.09688,6.458667 1.31071,9.122427 1.61106,19.991327 0.32971,11.92168 0.18444,11.42385 3.35922,11.42385 2.58063,0 2.89076,-0.59739 2.89076,-5.59685 0.002,-8.57401 1.20952,-21.984261 2.48596,-27.581116 2.09421,-9.177927 7.88879,-11.030487 11.297,-3.60882 1.4217,3.093041 2.57409,3.532106 5.15146,1.960286 2.23295,-1.361264 0.85205,-5.720902 -3.05399,-9.651269 -5.44691,-5.479335 -14.1143,-3.443967 -17.71185,4.160508 l -1.06587,2.252453 -1.21278,-2.4271 C 318.35774,80.86353 312.92715,77.90433 308.2115,79.051774 m 111.52373,22.403736 c -2.97075,2.41405 -3.83912,9.72799 -1.77266,14.92821 0.19914,0.50599 -0.0636,0.70512 -1.16544,0.88303 -11.79321,1.91458 -17.51924,17.42386 -10.02056,27.14205 5.99862,7.77586 17.85875,8.71438 25.1991,1.9962 4.51978,-4.13929 5.75215,-8.82374 4.75809,-18.08001 -0.12242,-1.12623 -0.0294,-1.19805 2.10074,-1.64364 4.17373,-0.8716 7.879,-3.5876 9.33662,-6.8455 1.6225,-3.62188 -3.55019,-6.43744 -5.42568,-2.9543 -5.55138,10.31231 -23.66149,-0.005 -18.90014,-10.7677 1.00385,-2.27041 0.81124,-2.82699 -1.42172,-4.13603 -2.05014,-1.19967 -1.89343,-1.17029 -2.68835,-0.52231 m -202.03678,3.92711 c -1.41355,2.64092 -0.34114,10.61917 2.25254,16.76934 0.75901,1.80196 1.38091,3.32482 1.38091,3.38358 0,0.28074 -3.28903,2.14472 -3.78362,2.14472 -0.30686,0 -1.61269,-1.37595 -2.90055,-3.05713 -5.98067,-7.80687 -12.99783,-11.77967 -14.74926,-8.34713 -1.38907,2.72089 -1.17688,3.44233 1.39396,4.74321 3.2923,1.66648 10.31926,8.52177 10.31926,10.06748 0,0.11099 -1.28787,0.95484 -2.85975,1.87378 -3.39677,1.98314 -3.59917,2.36344 -2.47616,4.67465 1.21277,2.49565 2.22316,2.64745 5.49098,0.81937 1.43476,-0.80305 2.78466,-1.45919 3.00012,-1.45919 1.26175,0 3.80484,9.14038 3.66446,13.17031 -0.12405,3.55333 -0.0114,3.72145 2.70795,4.06095 3.42941,0.42927 3.56489,0.19586 3.32821,-5.6752 -0.19913,-4.96846 -0.90591,-7.91623 -3.08826,-12.9059 -0.47174,-1.07726 -0.85694,-2.01579 -0.85694,-2.0876 0,-0.22035 3.56325,-2.23287 3.95174,-2.23287 0.2024,0 0.98262,0.86507 1.73674,1.92438 5.68685,7.98315 14.05554,13.15726 15.70088,9.7084 1.38907,-2.90861 1.18013,-3.65779 -1.38091,-4.95214 -2.65572,-1.34331 -6.73152,-4.98314 -8.91877,-7.96192 -1.66819,-2.27204 -1.68613,-2.22961 1.81836,-4.05116 2.80425,-1.45756 3.25476,-2.45647 2.09421,-4.64364 -1.31072,-2.46953 -2.23785,-2.60501 -5.26572,-0.76714 -1.345,0.81774 -2.7308,1.42819 -3.07685,1.35637 -1.51475,-0.31502 -4.03662,-9.28728 -3.74444,-13.32701 0.2122,-2.91513 -0.19914,-3.40479 -3.18621,-3.80468 -1.87058,-0.24973 -2.14318,-0.18771 -2.55288,0.57617 m 207.28454,18.88958 c 10.34701,5.15616 6.76743,20.37001 -4.80216,20.40918 -11.49613,0.0392 -14.81128,-15.06368 -4.48713,-20.44182 2.6949,-1.4037 6.43118,-1.39065 9.28929,0.0326 m -248.3102,40.77102 27.23292,27.23672 -2.70306,3.03755 c -15.40379,17.30634 -26.4233,36.48483 -33.74733,58.72698 -0.47663,1.44777 -0.98916,2.75518 -1.1377,2.90533 -0.15017,0.14853 -5.64931,-1.17845 -12.22086,-2.95267 -10.99992,-2.96736 -14.3722,-3.8716 -22.58092,-6.05713 -1.61433,-0.42927 -4.34839,-1.16051 -6.07534,-1.62568 -1.72532,-0.46519 -4.04969,-1.0838 -5.16289,-1.37433 -1.11485,-0.29053 -3.43758,-0.91404 -5.16453,-1.38248 -9.00364,-2.44669 -22.92044,-6.11916 -23.19303,-6.11916 -0.64639,0 5.07312,-17.83518 7.07755,-22.0724 0.2122,-0.4456 0.86675,-1.99457 1.456,-3.44234 2.66387,-6.53701 6.90453,-15.48969 10.55267,-22.27643 6.86209,-12.77042 17.15197,-27.98264 26.42984,-39.08168 4.98987,-5.96573 11.13376,-12.71493 11.59896,-12.73941 0.22362,-0.0114 12.66157,12.23506 27.63772,27.21713 m 323.14033,-23.68829 c 11.83075,12.83572 26.2454,32.70789 32.8251,45.25471 0.46846,0.89119 2.0632,3.86344 3.54531,6.60719 1.48047,2.74212 2.69325,5.0468 2.69325,5.12188 0,0.0751 1.09363,2.43689 2.43047,5.24919 1.33683,2.81067 2.43046,5.20839 2.43046,5.32754 0,0.11916 0.34114,0.98096 0.75738,1.91622 0.41623,0.93363 1.24705,2.97389 1.84447,4.53429 0.59741,1.55876 1.25359,3.19913 1.45925,3.64472 0.64965,1.4135 4.86745,13.8787 5.58403,16.50167 0.48642,1.78401 0.55987,1.72198 -3.23518,2.7062 -1.63228,0.42112 -4.37939,1.14908 -6.10635,1.61426 -1.72695,0.46518 -4.50671,1.2111 -6.17653,1.6567 -1.67146,0.4456 -4.40553,1.17355 -6.07535,1.61915 -1.67144,0.4456 -4.3598,1.16377 -5.97413,1.59467 -1.61595,0.43091 -11.50266,3.08651 -21.97372,5.90208 -25.27744,6.79816 -24.67023,6.6431 -24.96079,6.33788 -0.13873,-0.1469 -0.65617,-1.54245 -1.14912,-3.1012 -0.49295,-1.55876 -1.15402,-3.40969 -1.46742,-4.11155 -0.31502,-0.70185 -0.57129,-1.48694 -0.57129,-1.74319 0,-0.2579 -0.33298,-1.23233 -0.73943,-2.16596 -0.40643,-0.93525 -1.26664,-3.06692 -1.91302,-4.73667 -5.17269,-13.3923 -16.28687,-31.13118 -27.81238,-44.39616 -1.9571,-2.25246 -3.55836,-4.25681 -3.55836,-4.45431 0,-0.50272 53.97941,-54.431 54.47563,-54.42284 0.22362,0.003 1.87385,1.59794 3.66772,3.54353 m -158.38967,10.38903 c 21.48894,3.13874 37.55055,8.33081 55.28687,17.87109 29.9474,16.10503 56.51597,46.20792 68.62094,77.74715 0.59742,1.55875 1.24217,3.19913 1.42987,3.64472 0.6872,1.62895 2.41251,6.96792 3.27273,10.12625 0.48478,1.78073 1.13606,4.15071 1.44619,5.26387 6.20918,22.29112 6.12431,49.94406 -0.23179,76.34672 -0.85694,3.55332 -3.67098,12.62026 -4.46427,14.37652 -0.20077,0.4456 -0.85369,2.08597 -1.4511,3.64636 -22.15653,57.81621 -79.09689,96.31519 -142.54026,96.37884 -48.17177,0.049 -90.17353,-20.06967 -120.32333,-57.63177 -19.46654,-24.25303 -31.03448,-54.49465 -33.0226,-86.33747 -0.95652,-15.31178 0.5664,-31.44129 4.47734,-47.38637 1.05118,-4.28946 4.72381,-15.27261 6.70213,-20.04846 0.36889,-0.89119 0.9761,-2.34875 1.34826,-3.23994 14.03268,-33.5746 45.69887,-65.07792 79.6584,-79.25042 0.89123,-0.37214 2.34885,-0.97932 3.24007,-1.35147 12.91132,-5.37487 31.25648,-9.73614 45.76906,-10.88032 5.14168,-0.40479 26.49023,0.0963 30.78149,0.7247 m 163.63418,25.02181 c -2.58716,0.92546 -2.83363,2.43689 -1.01201,6.20077 1.24053,2.56257 1.83304,2.07128 -12.17353,10.12298 -14.63989,8.41568 -13.17737,7.96193 -15.67149,4.86073 -2.34885,-2.92003 -3.36412,-3.20077 -5.26736,-1.45594 -1.6633,1.52449 -1.67799,2.71274 -0.062,4.74158 4.31248,5.41241 13.80744,21.99895 14.75415,25.77263 0.49295,1.96028 1.56047,2.53972 3.53552,1.91621 3.16499,-0.99729 3.37881,-1.72036 1.6943,-5.72091 -1.37438,-3.26605 -2.03381,-2.62296 9.51619,-9.26606 5.60523,-3.22362 11.05051,-6.37052 12.0968,-6.98913 3.69711,-2.19043 3.73301,-2.19859 4.60792,-1.08705 4.09049,5.20022 4.62424,5.41568 6.97798,2.81067 1.58168,-1.74974 1.5621,-2.25572 -0.15506,-4.24212 -2.67857,-3.09957 -8.61679,-12.89284 -12.00214,-19.7922 -1.43477,-2.92493 -2.92341,-5.95594 -3.30699,-6.73614 -0.7639,-1.5506 -1.61106,-1.82318 -3.53225,-1.13602 m -352.27975,1.98314 c -1.1932,0.68879 -2.38476,3.55495 -2.54798,6.13058 -0.21709,3.40317 -0.34442,3.64473 -2.61981,4.97499 -3.14703,1.83787 -4.83644,4.93417 -4.85766,8.90534 -0.0115,2.0468 -0.23668,2.3863 -2.64918,3.96954 -3.06379,2.01252 -4.31248,4.10012 -4.60792,7.70404 -0.27096,3.31829 -0.66597,4.01361 -2.94464,5.17575 -3.87992,1.97824 -5.02741,5.78619 -2.23784,7.42003 2.05177,1.20294 3.11928,1.04461 4.09538,-0.60882 0.38685,-0.65614 1.37601,-1.53591 2.19705,-1.95702 3.16335,-1.62241 4.93274,-4.51306 4.93437,-8.06475 0.002,-2.827 0.45541,-3.49457 3.93869,-5.79762 2.09258,-1.38248 3.40656,-4.08216 3.73628,-7.67793 0.13874,-1.51632 0.33788,-2.83188 0.44072,-2.92329 0.10446,-0.093 0.91734,-0.64146 1.80855,-1.22089 3.63509,-2.35855 4.69443,-4.0838 4.97355,-8.1072 0.111,-1.59304 0.45052,-3.25626 0.75412,-3.69533 1.47395,-2.13656 -2.10237,-5.56257 -4.41368,-4.22742 m 6.38874,6.42928 c -0.75575,1.49184 -1.01854,2.64581 -1.01854,4.47063 0,2.7062 -0.13222,2.90044 -3.64651,5.39446 -2.34069,1.66159 -3.7167,4.37269 -4.02194,7.93255 l -0.23014,2.66866 -2.33089,1.5506 c -3.09971,2.06312 -4.2423,4.05442 -4.68301,8.17249 -0.2579,2.41404 -0.5207,3.29543 -1.0773,3.62025 -5.60362,3.26769 -7.25548,6.67738 -4.12641,8.51198 2.25908,1.32209 2.85975,1.29598 3.90931,-0.17954 0.47336,-0.66594 1.80693,-1.8493 2.96422,-2.63113 3.19599,-2.15942 4.73687,-4.99783 4.73687,-8.72417 0,-2.21491 0.38358,-2.75681 3.09643,-4.36617 2.49248,-1.47878 4.10354,-4.66323 4.1623,-8.22798 0.0327,-1.91948 1.18831,-4.00381 2.22154,-4.00381 2.13828,0 5.10086,-4.83135 5.10086,-8.31939 0,-1.53591 0.22362,-2.7568 0.59415,-3.24647 1.10832,-1.46736 0.77533,-2.77802 -0.95325,-3.74919 -2.56921,-1.44451 -3.5094,-1.21763 -4.69769,1.12623 m 349.3645,6.59577 c 0.0179,0.27747 0.55333,1.32535 1.19156,2.32916 2.71284,4.2666 3.06379,5.20349 2.19215,5.85148 -2.95606,2.19206 -25.00812,14.43365 -25.36396,14.07783 -1.57515,-1.57509 -4.68627,-8.00437 -4.04642,-8.35856 0.87164,-0.48313 21.21471,-12.17467 23.36279,-13.4282 1.83468,-1.0691 2.61817,-1.20784 2.66388,-0.47171 m -406.68359,58.0594 c 2.11707,0.56638 5.16942,1.37922 6.78538,1.81013 1.61432,0.42927 4.30268,1.14581 5.97413,1.5914 1.66982,0.4456 4.40389,1.17357 6.07534,1.61915 1.66982,0.4456 4.44959,1.19152 6.17654,1.6567 1.72695,0.46519 4.41531,1.18989 5.97413,1.60936 1.55883,0.41948 5.29511,1.42656 8.3034,2.23777 3.00665,0.81121 6.74293,1.80849 8.30339,2.21491 6.67928,1.74319 14.18613,3.76714 14.31018,3.86018 0.0751,0.0555 -0.33788,2.52993 -0.91571,5.50055 -4.1819,21.45216 -4.1819,42.80802 0,64.26181 0.57783,2.96899 0.99079,5.44343 0.91571,5.49893 -0.13222,0.0963 -12.97824,3.53374 -22.20877,5.94288 -2.56267,0.66757 -7.02696,1.86072 -9.92424,2.64908 -2.89566,0.78999 -6.54054,1.77747 -8.09937,2.19532 -1.56045,0.41948 -4.5671,1.23069 -6.68417,1.8036 -2.11544,0.57454 -5.16943,1.39553 -6.78701,1.82644 -1.61759,0.43091 -4.26025,1.13602 -5.87293,1.56692 -1.61269,0.43091 -4.48224,1.19152 -6.37568,1.6926 -1.89344,0.49947 -4.5361,1.22906 -5.87294,1.6208 -1.33683,0.39009 -2.56104,0.58759 -2.721,0.43906 -0.90918,-0.85528 -4.34186,-19.80852 -5.3653,-29.62301 -0.33624,-3.23015 -0.82593,-7.87869 -1.08709,-10.32864 -0.61374,-5.7617 -0.61374,-29.0697 0,-34.8314 0.26116,-2.44995 0.75085,-7.09686 1.08709,-10.32701 0.94182,-9.03755 4.32064,-28.06098 5.2494,-29.56425 0.10774,-0.17464 2.15788,0.21545 4.55406,0.86671 2.39619,0.65125 6.09002,1.64527 8.20546,2.21001 m 454.68068,-2.36997 c 0.1371,0.61209 0.41949,1.75136 0.62842,2.53157 7.90512,29.46632 7.80718,76.40873 -0.22689,109.0905 -0.71003,2.88902 -0.58925,2.76986 -2.28355,2.26714 -0.76391,-0.22687 -3.12255,-0.87486 -5.23798,-1.4396 -2.11707,-0.56475 -5.21513,-1.39718 -6.88658,-1.85094 -1.66981,-0.45375 -3.94848,-1.0593 -5.06169,-1.34821 -3.49797,-0.90097 -18.94258,-5.05822 -21.06291,-5.66703 -3.7673,-1.08379 -31.17323,-8.38957 -33.00955,-8.80088 -1.00221,-0.22362 -1.86895,-0.44723 -1.92445,-0.4962 -0.0572,-0.049 0.43092,-2.8988 1.08383,-6.33135 2.49249,-13.10666 2.66387,-15.11755 2.66387,-31.35479 0,-16.23561 -0.17138,-18.24813 -2.66387,-31.35315 -0.65291,-3.43418 -1.14096,-6.27096 -1.08383,-6.30687 0.0555,-0.0343 7.84799,-2.11209 17.31519,-4.61753 9.46885,-2.50382 17.76082,-4.72035 18.43005,-4.92275 0.66761,-0.20239 2.58226,-0.7296 4.25209,-1.17193 4.5312,-1.19804 8.66249,-2.30305 12.96191,-3.47008 4.23413,-1.14745 7.7321,-2.0827 12.96028,-3.46356 1.89345,-0.50109 4.5361,-1.23721 5.87293,-1.63711 3.13398,-0.93688 2.98218,-0.95157 3.27273,0.34277 m -32.01223,33.1796 c -2.53819,0.71818 -5.67706,3.76878 -6.70377,6.51089 -3.71669,9.93528 7.63907,18.36892 16.21505,12.04247 1.99301,-1.47063 2.20684,-0.95974 2.17909,5.18553 -0.0278,6.20567 -0.99569,9.83734 -3.83585,14.38795 -2.13828,3.42602 -2.1089,3.99075 0.29054,5.66541 1.70247,1.18825 2.30151,1.12786 3.55184,-0.35909 12.96844,-15.41298 4.20801,-47.94296 -11.6969,-43.43316 m -13.03537,2.85637 c -8.42418,9.19589 -8.12385,29.85805 0.57783,39.80476 5.29837,6.05713 13.79438,5.06964 17.43599,-2.02721 5.15962,-10.05443 -6.91433,-19.66326 -16.00122,-12.73289 l -1.32704,1.01198 -0.3134,-1.12623 c -1.60616,-5.74539 0.23995,-14.44344 4.56058,-21.49787 l 1.06752,-1.74157 -1.42335,-1.34331 c -2.14645,-2.02393 -2.98381,-2.08759 -4.57691,-0.34766 m -386.97381,-0.74429 c -5.15799,1.68608 -8.86162,7.43962 -7.7174,11.98534 0.2481,0.98096 0.45051,1.97661 0.45051,2.21328 0,0.27747 -1.81509,0.42764 -5.19391,0.42764 -11.02767,0 -14.13552,4.81013 -11.03093,17.0713 l 0.98916,3.90914 -1.02507,1.35638 c -2.65572,3.51578 -2.63613,5.64418 0.0636,6.58434 2.77814,0.9679 3.11275,0.86017 4.24392,-1.37269 1.75633,-3.46519 1.58167,-3.42112 14.76885,-3.65289 l 11.56142,-0.20239 0.12405,-2.36345 c 0.19097,-3.69206 0.83899,-3.50926 -12.44775,-3.50926 l -11.61855,0 -0.76554,-2.93635 c -2.27702,-8.74865 -2.05177,-8.9086 12.33349,-8.71437 15.00063,0.20239 17.69388,1.09847 18.15746,6.04571 0.23994,2.55931 0.46519,2.75518 3.17968,2.76333 5.64114,0.0179 3.46205,-9.09141 -3.01809,-12.62026 l -1.24543,-0.67736 0.79003,-2.24756 c 2.85322,-8.11862 -4.76625,-16.62081 -12.59956,-14.05988 m 406.37016,5.30306 c 3.54204,3.92874 -2.14318,9.52722 -6.06227,5.97064 -1.50007,-1.36127 -1.90977,-3.24322 -1.08384,-4.98315 1.3401,-2.8221 5.03231,-3.33298 7.14611,-0.98749 m -401.08158,1.60936 c 3.70364,2.60665 1.11811,8.39284 -3.37391,7.55062 -1.79061,-0.33625 -3.51266,-2.26552 -3.51266,-3.93854 0,-3.77367 3.81463,-5.77312 6.88657,-3.61208 m 393.16178,23.57404 c 3.10133,2.57236 1.18992,7.65018 -2.86792,7.61753 -4.59159,-0.0376 -5.917,-6.31503 -1.71226,-8.11536 1.11648,-0.47824 3.74771,-0.1926 4.58018,0.49783 m -355.8675,39.85045 c 0.39174,1.10174 1.3858,3.9173 2.20847,6.25627 6.67928,18.96466 18.13134,38.14152 31.92245,53.45494 l 2.71938,3.01796 -27.24924,27.25141 c -14.98757,14.98696 -27.43206,27.23508 -27.65568,27.21713 -0.22362,-0.0179 -2.16277,-1.97661 -4.31084,-4.35311 -15.18834,-16.81178 -27.61325,-34.9277 -37.26817,-54.34123 -2.36679,-4.76117 -5.27551,-11.15291 -7.00246,-15.39013 -0.58925,-1.44777 -1.2438,-2.99674 -1.456,-3.44233 -2.00443,-4.23885 -7.72394,-22.07403 -7.07755,-22.07403 0.10773,0 1.97669,-0.47171 4.15088,-1.04951 2.17583,-0.57781 4.86582,-1.28782 5.97903,-1.57672 1.11485,-0.29054 3.43758,-0.91078 5.16453,-1.38086 1.72695,-0.46844 4.50671,-1.21762 6.17653,-1.66322 1.67146,-0.44559 4.40552,-1.17356 6.07535,-1.61915 1.67145,-0.44559 4.45121,-1.19478 6.17653,-1.66486 1.72695,-0.47008 4.41531,-1.18498 5.97414,-1.58814 1.56045,-0.40479 9.85242,-2.64092 18.43004,-4.97008 17.90771,-4.864 16.1318,-4.64692 17.04261,-2.08434 m 315.48822,-1.24701 c 1.22584,0.29869 4.04967,1.03645 6.27774,1.64037 2.22806,0.60229 6.32833,1.70077 9.113,2.44016 2.78467,0.73939 10.89545,2.91513 18.0236,4.83787 12.59956,3.39664 15.53439,4.185 21.87253,5.87597 1.66982,0.44559 4.44958,1.18989 6.17653,1.65343 1.72696,0.46518 4.14109,1.09031 5.36693,1.39064 4.32554,1.05767 4.45938,1.15561 3.98112,2.90861 -0.72146,2.64418 -4.93763,15.10612 -5.59055,16.52451 -0.20566,0.44559 -0.86184,2.08596 -1.45925,3.64636 -0.59742,1.55876 -1.42824,3.59903 -1.84447,4.53428 -0.41624,0.93363 -0.75738,1.78891 -0.75738,1.89827 0,0.31664 -3.49797,7.72525 -5.85334,12.39991 -3.03278,6.01633 -4.67974,8.99186 -9.98138,18.02288 -1.97017,3.35747 -9.44762,14.2541 -13.2998,19.38088 -5.94803,7.9195 -17.54372,21.32322 -18.44637,21.32322 -0.50111,0 -54.48705,-53.91849 -54.48705,-54.41957 0,-0.19587 1.51802,-2.10882 3.37391,-4.25518 11.86177,-13.70731 22.76211,-31.07405 27.9952,-44.60345 0.64638,-1.67139 1.50822,-3.80306 1.91465,-4.73668 0.40645,-0.93526 0.73943,-1.90969 0.73943,-2.16595 0,-0.25788 0.25627,-1.04298 0.57129,-1.74484 0.3134,-0.70184 0.9761,-2.55114 1.47069,-4.11153 1.12137,-3.53048 1.13606,-3.55332 1.94731,-3.23995 0.36726,0.14201 1.66982,0.50272 2.89566,0.79979 m 1.79386,32.38145 c -5.77009,2.62296 -7.74515,10.25029 -4.04151,15.59578 2.13012,3.07346 4.04805,3.87978 12.56854,5.28674 9.86222,1.62731 17.22052,6.6839 17.22052,11.83354 0,5.54462 -3.71506,4.81176 -10.57063,-2.0876 -5.45343,-5.4875 -8.94815,-7.35312 -14.86025,-7.93581 -3.4637,-0.34114 -4.13619,0.15178 -4.13619,3.03591 0,2.43199 0.37053,2.73884 3.89951,3.23993 4.46917,0.63331 6.26468,1.65833 10.63591,6.0702 8.63965,8.71765 15.30261,10.0022 19.61346,3.7802 5.53668,-7.98804 -1.45274,-18.68229 -14.80803,-22.65509 -1.05771,-0.31339 -1.92445,-0.61045 -1.92445,-0.65779 0,-0.0457 0.36563,-1.04298 0.81124,-2.21491 3.40819,-8.969 -5.61503,-17.29165 -14.40812,-13.2911 m -323.47984,7.47553 c -2.54635,2.67519 -3.91093,4.54245 -5.32938,7.28946 -2.10075,4.0642 -2.04035,4.03157 -5.51547,3.06529 -4.92131,-1.36779 -8.44866,-2.30631 -11.27251,-3.00164 -4.48386,-1.10174 -4.32226,-1.37432 1.44457,-2.44015 6.27121,-1.16051 6.34466,-1.20621 6.03943,-3.7802 -0.42439,-3.58108 -0.65618,-3.62515 -9.98302,-1.89664 -2.56103,0.47498 -6.57155,1.20295 -8.91059,1.61916 -9.24033,1.64364 -9.10159,1.57019 -9.57332,5.00762 l -0.24647,1.79708 9.40519,8.04027 c 11.62834,9.94343 11.60875,9.93364 13.79437,6.39826 1.15402,-1.86561 1.17034,-1.83623 -3.26782,-5.67846 -2.23459,-1.9358 -4.00724,-3.57618 -3.93706,-3.64636 0.1714,-0.17138 5.70972,1.10827 10.6343,2.45812 2.22805,0.61044 4.83154,1.31882 5.78478,1.57344 l 1.73675,0.46356 0.13058,6.27422 c 0.21057,10.17683 1.71063,13.86726 5.25104,12.92058 3.02297,-0.80794 3.25476,-1.49837 1.83631,-5.46954 -0.82919,-2.32264 -1.37437,-11.01906 -0.73126,-11.67194 0.12896,-0.13222 1.58821,0.11262 3.24007,0.54189 4.93764,1.28619 10.60817,2.80904 12.06743,3.24157 1.80693,0.537 2.62796,0.0473 3.21721,-1.91948 1.09526,-3.65452 1.54251,-3.3493 -8.99384,-6.13222 -4.20801,-1.1099 -7.72884,-2.09739 -7.82514,-2.19369 -0.7084,-0.71002 3.56326,-6.92548 7.02532,-10.22091 2.5382,-2.41731 2.53003,-2.37813 0.95162,-4.55551 -1.93751,-2.67519 -2.84016,-2.42709 -6.97309,1.91622 m 330.15749,-1.79217 c 2.18072,1.12786 2.91526,3.72634 1.64371,5.81394 -1.95874,3.21219 -6.56176,2.87432 -7.69619,-0.56638 -1.28297,-3.88467 2.44189,-7.11481 6.05248,-5.24756 M 213.9115,425.50506 c 16.09916,14.50057 36.15495,26.11376 57.46597,33.27753 l 4.47896,1.5049 -1.76285,6.53701 c -1.72368,6.39011 -2.55942,9.49947 -4.19986,15.64802 -0.44723,1.67138 -1.16708,4.35963 -1.59962,5.97389 -2.26724,8.44997 -3.43595,12.83245 -4.80053,18.02452 -3.19601,12.14203 -7.64559,28.29602 -7.85125,28.50168 -0.3085,0.30848 -13.42059,-3.99075 -19.75219,-6.47498 -7.67171,-3.01143 -13.59035,-5.63276 -20.43122,-9.05062 -15.07571,-7.53266 -29.43487,-16.71712 -42.90768,-27.44401 -6.87189,-5.4728 -16.41908,-14.00437 -16.43704,-14.68664 -0.0115,-0.45865 54.0039,-54.31348 54.51154,-54.34939 0.23668,-0.0163 1.71553,1.12622 3.28577,2.53809 m 248.10944,24.46522 c 14.87005,14.86782 27.03705,27.23183 27.03705,27.47339 0,0.80305 -13.38468,12.4146 -21.06128,18.27262 -21.35835,16.296 -45.4018,28.81343 -71.89366,37.42824 -7.09878,2.30958 -6.51931,2.21818 -6.85067,1.0691 -0.4146,-1.43471 -1.84284,-6.69533 -2.72263,-10.02341 -0.44072,-1.67139 -1.14587,-4.31394 -1.56536,-5.8727 -0.4195,-1.5604 -1.14749,-4.29435 -1.61922,-6.07509 -0.47173,-1.78238 -1.20135,-4.51633 -1.62249,-6.07509 -0.41949,-1.5604 -1.12626,-4.20295 -1.57024,-5.87271 -0.44235,-1.67137 -3.0034,-11.2394 -5.69013,-21.26445 -2.68836,-10.02341 -4.88703,-18.34769 -4.88703,-18.49622 -0.002,-0.28074 0.33299,-0.40968 8.30176,-3.18771 19.04868,-6.6431 38.6409,-18.39176 54.27485,-32.54631 1.11322,-1.00707 2.20685,-1.8395 2.42884,-1.84766 0.22199,-0.01 12.57017,12.14856 27.44021,27.018 m -250.30811,-2.46464 c -1.04629,0.42111 -0.41134,2.49728 2.07463,6.79653 3.31351,5.72907 4.92784,6.65616 5.99861,3.44397 0.26933,-0.80468 1.14096,-0.0523 1.14096,0.98422 0,2.24593 -1.60452,5.67357 -7.15263,15.27914 -10.19848,17.654 -10.90689,19.48371 -9.06078,23.42223 1.17198,2.50219 2.92015,3.51416 6.71846,3.8863 l 2.85812,0.28074 0.90917,1.98314 c 1.17851,2.56747 2.90057,3.47824 7.2718,3.84222 l 3.2466,0.27095 0.27259,1.44941 c 0.65291,3.48151 1.98159,4.57836 4.02193,3.31828 2.5741,-1.5914 2.832,-2.13166 2.08443,-4.37758 -0.81288,-2.44832 -0.01,-5.57238 2.52186,-9.81776 2.0632,-3.46029 12.41184,-21.43584 12.93906,-22.47719 0.63986,-1.2617 -0.0685,-2.44669 -2.03708,-3.39989 -2.52514,-1.22254 -2.50718,-1.23885 -7.17223,6.95811 -2.30966,4.05768 -4.96539,8.65399 -5.90231,10.21275 -3.58611,5.96737 -5.84845,10.20132 -5.84845,10.94398 0,0.47171 -0.61048,0.59903 -2.8875,0.59903 l -2.8875,0 0.19587,-1.74157 c 0.14201,-1.26171 1.4462,-3.90262 4.75156,-9.61863 2.50555,-4.33352 4.92296,-8.51688 5.37346,-9.29544 0.44888,-0.7802 2.08932,-3.56803 3.64324,-6.19425 3.16336,-5.34876 3.26456,-6.13058 0.97774,-7.54245 -1.66492,-1.02993 -2.76834,-1.07236 -3.58122,-0.13548 -0.65618,0.75735 -4.85276,7.79544 -7.42686,12.45378 -0.49132,0.89118 -2.38149,4.14582 -4.19822,7.23233 -1.81673,3.08652 -3.6661,6.32156 -4.10845,7.18826 l -0.8047,1.57835 -2.6247,0 c -3.59265,0 -3.56,-1.33025 0.18281,-7.44615 14.40485,-23.53486 16.3701,-29.49733 11.45532,-34.76937 -0.97773,-1.04625 -1.00385,-1.18826 -0.49784,-2.71927 0.88632,-2.68499 0.49458,-2.8629 -6.21898,-2.82536 -3.14703,0.0179 -5.94965,0.12405 -6.22877,0.23667 m 214.55961,7.5849 c -2.87607,1.53264 -2.82711,1.70075 3.93052,13.35965 3.29883,5.68988 6.27773,10.8542 6.61888,11.47607 0.91734,1.67466 2.03708,3.37868 3.29557,5.01742 l 1.11974,1.4592 -1.30256,2.15942 c -2.39781,3.97117 -2.69162,3.65126 -12.58648,-13.70568 -8.43235,-14.7911 -8.55151,-14.95432 -10.34374,-14.32919 -1.12464,0.39173 -1.33521,0.29543 -3.00176,-1.37269 -2.66877,-2.66703 -4.19169,-1.96845 -7.21793,3.31339 -0.49785,0.8667 -0.95489,1.64526 -1.01528,1.72688 -0.0604,0.0833 -0.94672,-0.33787 -1.96689,-0.93689 -2.57084,-1.50654 -3.79178,-1.29108 -4.98824,0.88465 -1.16872,2.12514 -0.91408,3.10774 1.06587,4.11807 3.02461,1.54408 3.0442,1.60611 3.11112,10.07075 0.13058,16.40863 6.82782,25.2291 14.34445,18.89122 0.95815,-0.80794 1.43968,-1.00707 1.56046,-0.64635 2.36354,7.09033 10.98686,8.59686 15.07735,2.63276 l 1.41845,-2.06638 2.02402,0.17791 c 2.84179,0.24809 4.75483,-0.94342 7.08899,-4.41514 1.31235,-1.95376 1.99301,-2.63602 2.43045,-2.44015 1.08873,0.48966 6.55196,0.60391 7.009,0.14689 0.50274,-0.50272 0.40971,-3.90098 -0.13385,-4.91785 -0.26606,-0.49456 -1.04139,-0.74102 -2.73405,-0.86344 -3.61387,-0.26115 -5.36204,-1.9309 -9.36765,-8.94942 -10.26865,-17.9935 -12.55058,-21.69372 -13.41242,-21.74596 -0.11426,-0.008 -1.02507,0.42275 -2.02402,0.95486 m -134.66779,8.94452 c 20.19617,3.94994 43.26678,3.83569 63.70942,-0.31666 3.12744,-0.6333 4.6781,-0.79325 4.89846,-0.50272 0.26444,0.3444 4.59486,16.13605 8.58905,31.30745 0.42439,1.61426 1.12627,4.25681 1.55882,5.87271 0.43256,1.61425 1.17198,4.39391 1.64371,6.17628 0.47173,1.78237 1.20135,4.5147 1.62085,6.0751 0.42112,1.55876 1.12791,4.20131 1.57025,5.8727 0.44235,1.66975 1.72858,6.44723 2.85648,10.6159 1.12955,4.16703 2.05341,7.82972 2.05341,8.13658 0,0.56148 -1.22747,0.87649 -10.73386,2.76333 -23.33503,4.62896 -53.70519,5.74538 -75.94334,2.78945 -8.24789,-1.09684 -12.56037,-1.79217 -17.82121,-2.87759 -3.23027,-0.66431 -6.92085,-1.41676 -8.20219,-1.66976 -2.84669,-0.5631 -3.25638,2.31449 2.97401,-20.87761 2.91688,-10.85748 5.64115,-21.01473 6.05249,-22.57349 2.05503,-7.78565 2.53003,-9.57129 4.89357,-18.42931 0.44561,-1.66975 1.05282,-3.94831 1.34989,-5.06149 2.2052,-8.2949 2.43862,-8.8776 3.4033,-8.50709 0.36726,0.14038 2.85485,0.6839 5.52689,1.20622 m 128.80138,11.22144 c 3.56326,6.26117 7.31913,12.79819 8.3442,14.52832 l 1.8657,3.14527 -1.13281,1.82156 c -2.17256,3.48804 -3.11765,2.6556 -9.10974,-8.02559 -1.95873,-3.49293 -8.13527,-14.07456 -8.93998,-15.31994 -1.1883,-1.83624 -1.06588,-2.84005 0.6823,-5.6393 1.61921,-2.59031 1.02506,-3.27094 8.29033,9.48968 m -8.6576,9.0392 c 0.89449,1.55876 1.92119,3.31665 2.28356,3.90262 0.76227,1.24375 0.11752,4.40044 -0.90102,4.40044 -1.29439,0 -3.56327,-5.95104 -4.0154,-10.53103 -0.25954,-2.6295 -0.0523,-2.45322 2.63286,2.22797 m -113.59508,6.14364 c -0.46847,0.46844 -0.29218,4.81013 0.21546,5.31775 0.70188,0.70185 48.55046,0.70185 49.25233,0 0.50601,-0.50599 0.66761,-3.83407 0.23995,-4.94723 -0.25627,-0.66922 -49.04667,-1.03319 -49.70774,-0.37052 m 0.23668,7.69262 c -0.66271,0.26768 -0.67903,4.66323 -0.0212,5.321 0.32972,0.32971 2.22316,0.48641 5.87293,0.48641 l 5.38815,0 0.003,2.32917 c 0.0343,17.66215 25.53371,18.65617 26.63224,1.03807 l 0.20892,-3.34603 5.71461,-0.11261 5.71623,-0.111 0.12243,-2.36344 c 0.0718,-1.39391 -0.0735,-2.59849 -0.35421,-2.93635 -0.63822,-0.77041 -18.16398,-0.85038 -18.92625,-0.0881 -0.77697,0.77694 -0.56478,3.38684 0.41133,5.03864 4.35001,7.37433 -6.0378,14.41406 -11.56958,7.84115 -2.03056,-2.41405 -2.16767,-7.53103 -0.23343,-8.72581 0.54518,-0.33787 0.45868,-3.5827 -0.11099,-4.15398 -0.48641,-0.48477 -17.69714,-0.68389 -18.85443,-0.21708"
       sodipodi:nodetypes="cccsccccccccscccccscccccccccsccsccccccccccsccccccccccccccccscccsccccccsccccsccccccccccccscccccccccccccccccccccccsscccscccsccccssccccsccccccccccccccccccccscccccccccscscccccscccccscsccsscccccccccccccccccccccccscccccccccccccccccccccccccccccccccscccccccccsccssccccccscccccccssccccccccccssccccccccsccccccccccccscccccccccccccscccccccccccccccssccccccccsccsccccccccccccsccccccccccsccccscccccccccccsccccccccscccsscccscccccccsccsccccscccccccccccccccsccccccccccccccccccccccccccscccccccscccccccccccccccccscccccccccccccccssccccccccsccscccccccccccscccccccccccccccsccccccccccscccsccccscccccccccccccccscccsscccssccccccccsccccc" />
  </g>
</svg>
