<?xml version="1.0" encoding="UTF-8" standalone="no"?>
<!-- Created with Inkscape (http://www.inkscape.org/) -->

<svg
   xmlns:dc="http://purl.org/dc/elements/1.1/"
   xmlns:cc="http://creativecommons.org/ns#"
   xmlns:rdf="http://www.w3.org/1999/02/22-rdf-syntax-ns#"
   xmlns:svg="http://www.w3.org/2000/svg"
   xmlns="http://www.w3.org/2000/svg"
   xmlns:sodipodi="http://sodipodi.sourceforge.net/DTD/sodipodi-0.dtd"
   xmlns:inkscape="http://www.inkscape.org/namespaces/inkscape"
   width="141.11111mm"
   height="141.11111mm"
   viewBox="0 0 500.00001 500.00001"
   id="svg3349"
   version="1.1"
   inkscape:version="0.91 r13725"
   sodipodi:docname="drawing-2.svg">
  <defs
     id="defs3351" />
  <sodipodi:namedview
     id="base"
     pagecolor="#ffffff"
     bordercolor="#666666"
     borderopacity="1.0"
     inkscape:pageopacity="0.0"
     inkscape:pageshadow="2"
     inkscape:zoom="0.98994949"
     inkscape:cx="186.3066"
     inkscape:cy="246.77939"
     inkscape:document-units="px"
     inkscape:current-layer="layer1"
     showgrid="false"
     inkscape:window-width="1366"
     inkscape:window-height="715"
     inkscape:window-x="-8"
     inkscape:window-y="-8"
     inkscape:window-maximized="1"
     fit-margin-top="0"
     fit-margin-left="0"
     fit-margin-right="0"
     fit-margin-bottom="0" />
  <metadata
     id="metadata3354">
    <rdf:RDF>
      <cc:Work
         rdf:about="">
        <dc:format>image/svg+xml</dc:format>
        <dc:type
           rdf:resource="http://purl.org/dc/dcmitype/StillImage" />
        <dc:title></dc:title>
      </cc:Work>
    </rdf:RDF>
  </metadata>
  <g
     inkscape:label="Camada 1"
     inkscape:groupmode="layer"
     id="layer1"
     transform="translate(-98.443885,-6.2590696)">
    <path
       style="fill:#ffffff;fill-rule:evenodd;stroke:none"
       inkscape:connector-curvature="0"
       id="path1"
       d="m 305.76511,158.02668 c -4.43163,6.26607 -8.73594,12.35585 -9.56188,13.53431 -0.82593,1.17845 -2.69325,3.79162 -4.15088,5.80577 -1.45762,2.01415 -2.64102,3.9826 -2.63123,4.37433 0.0261,0.96301 4.93437,6.23995 5.45834,5.86617 0.22851,-0.16159 1.29276,-1.33515 2.36516,-2.60665 l 1.95058,-2.31283 2.56104,1.96191 c 12.48692,9.57129 41.63124,7.24049 66.35371,-5.30632 2.71448,-1.37759 2.44679,-0.63493 -1.63881,4.53591 -12.28941,15.55336 -21.9476,31.13771 -27.4141,44.23948 l -1.14096,2.73395 -4.21127,0 c -5.2037,0 -14.68724,-1.29761 -19.22987,-2.62949 -1.87059,-0.55005 -3.51919,-1.00381 -3.66283,-1.00708 -0.27095,-0.01 -2.02402,4.68771 -5.81253,15.58437 -1.24053,3.56311 -2.97892,8.50545 -3.86361,10.97988 -0.88306,2.47444 -1.60779,4.64201 -1.60779,4.81339 0,0.59576 3.86523,-0.21219 9.51781,-1.9913 6.21245,-1.95375 7.84473,-2.3161 14.82108,-3.29542 7.11347,-0.99729 6.74457,-1.45921 4.42674,5.55604 -11.27578,34.13282 -24.6278,60.29717 -38.75353,75.93702 -3.78199,4.18499 -3.70201,3.92221 -2.50392,8.29327 1.03487,3.77857 0.77697,3.71818 6.13573,1.40697 10.17726,-4.39229 19.10418,-6.86835 31.06388,-8.61645 8.08792,-1.18335 32.1477,-1.03156 38.07287,0.23993 8.73431,1.87379 21.30285,6.59414 26.6355,10.00546 1.17524,0.75246 2.30314,1.3678 2.50717,1.3678 0.33462,0 1.84612,-2.12188 10.09075,-14.17576 1.4462,-2.11697 3.56978,-5.21492 4.71564,-6.8863 1.1475,-1.66975 3.85382,-5.62461 6.01658,-8.78946 l 3.93216,-5.75028 -3.10786,-2.44996 c -3.82116,-3.01469 -3.63671,-3.01959 -5.98883,0.18281 -2.09584,2.85311 -2.42066,2.97879 -5.15799,1.99457 -22.07982,-7.94725 -45.5079,-6.69207 -72.6543,3.89282 -5.02088,1.95703 -5.08291,1.94723 -2.79609,-0.46845 1.13442,-1.19803 2.77487,-2.97878 3.64487,-3.95647 0.87001,-0.9777 1.77265,-1.98152 2.00444,-2.22797 4.34675,-4.63223 13.01252,-16.87544 17.66124,-24.95326 3.65304,-6.35093 11.78994,-23.43693 14.05717,-29.51855 l 0.69699,-1.87052 2.01096,0.0196 c 1.97506,0.0196 10.44985,0.85691 20.45407,2.02231 2.79446,0.32481 5.36693,0.59086 5.7195,0.59086 0.39501,0 1.06098,-0.96301 1.74817,-2.53156 0.61047,-1.39227 3.19274,-7.36127 5.73908,-13.26499 2.54636,-5.90208 4.91153,-11.33897 5.25594,-12.08162 0.34441,-0.74103 0.52559,-1.45104 0.39991,-1.57509 -0.3085,-0.31012 -8.39644,0.61861 -11.38514,1.3074 -2.26559,0.52231 -14.55828,2.24266 -20.3953,2.85474 l -2.5741,0.26931 0.29707,-1.36126 c 2.60675,-11.96248 16.61005,-44.93153 23.75617,-55.931 1.40865,-2.16758 3.19926,-4.98641 3.97949,-6.2628 1.21115,-1.98151 7.18039,-10.98316 8.25279,-12.44888 0.23341,-0.31665 -0.31339,-1.49347 -1.58004,-3.39827 l -1.93751,-2.91186 -1.456,0.87813 c -27.54468,16.60775 -60.51342,16.75955 -85.29956,0.39336 -1.55881,-1.02993 -3.03603,-2.00272 -3.28087,-2.16268 -0.27586,-0.17954 -3.51103,4.04135 -8.5058,11.10067"
       sodipodi:nodetypes="csscccccscccsccccscccccccccscccccccccsccccccsccccccccccccccccc" />
  </g>
</svg>
